<?xml version="1.0" encoding="utf-8"?>
<!-- Generator: Adobe Illustrator 16.0.0, SVG Export Plug-In . SVG Version: 6.00 Build 0)  -->
<!DOCTYPE svg PUBLIC "-//W3C//DTD SVG 1.1//EN" "http://www.w3.org/Graphics/SVG/1.1/DTD/svg11.dtd">
<svg version="1.1" id="Layer_1" xmlns="http://www.w3.org/2000/svg" xmlns:xlink="http://www.w3.org/1999/xlink" x="0px" y="0px"
	 width="1000px" height="270px" viewBox="0 0 1000 270" enable-background="new 0 0 1000 270" xml:space="preserve">
<g>
	<path fill="#FFFFFF" d="M101.732,107.184"/>
	<path fill="#FFFFFF" stroke="#FFFFFF" stroke-miterlimit="10" d="M98.356,108.665"/>
	<path fill="#FFFFFF" d="M50.094,31.086c-6.211,46.714-19.489,154.336-21.669,164.484v-0.002l-16.921,13.603l0,0h115.139
		l18.041-133.279l-63.118,34.604l19.867-3.044l-12.748,94.127l0,0l-2.53-8.224l-18.981,0.316
		c7.277-52.824,13.918-104.066,20.562-156.89l-8.857-4.112h31.948l-5.653,43.028l41.154-22.712l5.303-37.715H36.807l0,0
		L50.094,31.086"/>
	<path fill="#FFFFFF" d="M167.446,31.086l-22.075,164.81l-16.515,13.275l0,0h114.823L268.667,15.27l-114.478,0.007l-0.022-0.024l0,0
		l0.017,0.017h-0.022c0.009,0.003,0.019,0.005,0.027,0.007l13.259,15.787C167.446,31.073,167.446,31.08,167.446,31.086
		 M206.036,201.579l-2.845-8.224l-18.664,0.316c7.275-52.824,13.285-104.066,20.562-156.89l-8.859-3.796l31.948-0.315
		L206.036,201.579z"/>
	<path fill="#FFFFFF" d="M283.536,31.086l-22.077,164.81l-16.513,13.275l0,0h114.82L384.756,15.27H270.249h0.288h-0.288
		c0.127,0.033,0.247,0.067,0.374,0.1l12.94,15.406C283.549,30.882,283.549,30.98,283.536,31.086 M322.125,201.579l-2.847-8.224
		l-18.663,0.316c7.276-52.824,13.287-104.066,20.562-156.89l-8.857-3.796l31.949-0.315L322.125,201.579z"/>
	<path fill="#FFFFFF" d="M615.679,15.27L615.679,15.27h-0.01c0.003,0.002,0.008,0.003,0.014,0.003l13.272,15.803
		c-0.002,0.003,0,0.007-0.002,0.01l-8.539,63.262l-2.214,17.715l-11.322,83.833l-16.515,13.275l0,0h114.823L730.174,15.27H615.679z
		 M667.544,201.579l-2.846-8.224l-18.662,0.316c7.273-52.824,13.283-104.066,20.561-156.89l-8.859-3.796l31.948-0.315
		L667.544,201.579z"/>
	<path fill="#FFFFFF" d="M745.043,31.086l-22.075,164.81l-16.515,13.275l0,0h114.819L846.264,15.27H731.756h0.057h-0.057
		c0.026,0.007,0.049,0.014,0.074,0.021l13.218,15.738C745.045,31.049,745.045,31.066,745.043,31.086 M783.633,201.579l-2.849-8.224
		l-18.662,0.316c7.277-52.824,13.287-104.066,20.561-156.89l-8.855-3.796l31.948-0.315L783.633,201.579z"/>
	<path fill="#FFFFFF" d="M399.306,31.086c-6.271,47.169,0,0-21.713,164.774l-16.561,13.311l0,0h79.397l38.59-24.672l18.662-144.24
		L465.417,15.27h-79.075l0,0h-0.003c0.002,0,0.003,0,0.003,0.002l12.995,15.471C399.325,30.862,399.323,30.968,399.306,31.086
		 M438.215,201.579l-2.849-8.224l-18.662,0.316c7.273-52.824,13.283-104.066,20.56-156.89l-8.856-4.112h31.945
		C452.765,89.605,445.488,144.958,438.215,201.579z"/>
	<path fill="#FFFFFF" d="M860.813,31.086c-6.272,47.169-19.455,154.851-21.714,164.774l-16.561,13.311h0.032h79.361l38.59-24.672
		l18.665-144.24L926.923,15.27h-79.077l0,0h-0.01l13.007,15.487C860.83,30.87,860.829,30.973,860.813,31.086 M899.719,201.579
		l-2.846-8.224l-18.662,0.316c7.273-52.824,13.283-104.066,20.56-156.89l-8.858-4.112h31.948
		C914.268,89.605,906.995,144.958,899.719,201.579z"/>
	<g>
		<path fill="#FFFFFF" d="M988.029,36.921c-2.992,2.489-6.246,3.731-9.762,3.731c-3.515,0-6.25-1.242-8.206-3.731
			c-1.95-2.488-2.547-5.488-1.799-9.003c0.748-3.501,2.622-6.485,5.615-8.95c3.007-2.464,6.268-3.698,9.779-3.698
			c3.515,0,6.243,1.234,8.192,3.698c1.957,2.465,2.561,5.449,1.813,8.95C992.914,31.433,991.036,34.433,988.029,36.921z
			 M974.914,20.194c-2.557,2.133-4.156,4.708-4.802,7.725c-0.645,3.041-0.144,5.632,1.504,7.776
			c1.657,2.142,3.999,3.214,7.016,3.214s5.814-1.073,8.396-3.214c2.547-2.144,4.14-4.735,4.788-7.776
			c0.646-3.017,0.138-5.591-1.521-7.725c-1.647-2.142-3.981-3.213-6.998-3.213C980.29,16.981,977.496,18.052,974.914,20.194z
			 M979.72,35.296c-1.901,0-3.381-0.68-4.431-2.039c-1.058-1.359-1.346-3.168-0.876-5.425c0.45-2.109,1.432-3.872,2.945-5.288
			c1.518-1.417,3.254-2.125,5.21-2.125c1.232,0,2.293,0.247,3.183,0.743c1.53,0.887,2.151,2.361,1.863,4.422h-2.09
			c0.078-0.863-0.124-1.611-0.615-2.247c-0.487-0.633-1.324-0.951-2.512-0.951c-1.672,0-3.034,0.75-4.095,2.249
			c-0.69,0.954-1.157,1.985-1.4,3.091c-0.333,1.579-0.224,2.907,0.329,3.985c0.553,1.076,1.565,1.615,3.041,1.615
			c0.944,0,1.785-0.25,2.522-0.751c0.734-0.501,1.336-1.229,1.796-2.187h2.09c-0.597,1.555-1.53,2.763-2.797,3.62
			C982.617,34.867,981.23,35.296,979.72,35.296z"/>
	</g>
	<path fill="#FFFFFF" d="M551.778,195.847L535.2,209.171l0,0h53.581L613.769,15.27l0,0H560.03h-0.033
		c0.016,0.003,0.027,0.009,0.043,0.012l13.174,15.686l-6.272,47.568l-24.177,13.23l9.956-76.496l0,0h-53.761h-0.012
		c0.005,0.002,0.011,0.003,0.016,0.005l13.271,15.799c0,0.003,0,0.009-0.002,0.012l-8.226,63.262
		c-6.216,46.759-11.183,91.126-13.431,101.25l-16.867,13.558c-0.022,0.005-0.045,0.01-0.069,0.016h0.052l0,0h54.041
		c3.561-29.678,7.401-58.815,11.26-88.423l24.198-13.244L551.778,195.847"/>
</g>
<g>
	<path fill="#FFFFFF" d="M361.566,242.955c-5.111,0-6.326-3.337-6.326-6.134v-0.49c0-3.092,1.4-6.036,7.024-6.036h0.393
		c6.474,0,7.088,3.058,7.088,4.825v0.016h-4.766c-0.062-0.311-0.369-1.161-2.394-1.161c-1.819,0-2.543,1.031-2.543,2.502v0.147
		c0,1.521,0.687,2.731,2.506,2.731c1.817,0,2.308-0.753,2.308-1.079h-2.468v-2.486h7.417v6.919h-3.132
		c-0.086-0.344-0.319-0.966-0.553-1.276c-0.295,0.359-1.375,1.521-4.235,1.521H361.566z"/>
	<path fill="#FFFFFF" d="M378.831,230.295c6.178,0,7.112,3.5,7.112,6.052v0.491c0,2.502-0.945,6.117-7.112,6.117h-0.612
		c-6.153,0-7.11-3.615-7.11-6.117v-0.491c0-2.552,0.932-6.052,7.11-6.052H378.831z M381.129,236.445
		c0-1.063-0.615-2.274-2.617-2.274c-2.025,0-2.602,1.211-2.602,2.274v0.196c0,1.096,0.639,2.404,2.602,2.404
		c1.991,0,2.617-1.26,2.617-2.372V236.445z"/>
	<path fill="#FFFFFF" d="M394.784,230.295c6.179,0,7.112,3.5,7.112,6.052v0.491c0,2.502-0.946,6.117-7.112,6.117h-0.612
		c-6.153,0-7.11-3.615-7.11-6.117v-0.491c0-2.552,0.932-6.052,7.11-6.052H394.784z M397.083,236.445
		c0-1.063-0.615-2.274-2.617-2.274c-2.025,0-2.602,1.211-2.602,2.274v0.196c0,1.096,0.639,2.404,2.602,2.404
		c1.991,0,2.617-1.26,2.617-2.372V236.445z"/>
	<path fill="#FFFFFF" d="M403.211,230.541h7.318c5.22,0,6.854,2.617,6.854,5.757v0.507c0,3.026-1.241,5.905-6.854,5.905h-7.318
		V230.541z M407.875,238.948h1.867c2.641,0,2.813-1.604,2.813-2.323v-0.099c0-0.719-0.208-2.208-2.813-2.208h-1.867V238.948z"/>
	<path fill="#FFFFFF" d="M418.684,230.541h4.666v4.04h4.89v-4.04h4.666v12.169h-4.666v-4.335h-4.89v4.335h-4.666V230.541z"/>
	<path fill="#FFFFFF" d="M441.943,230.295c6.177,0,7.11,3.5,7.11,6.052v0.491c0,2.502-0.944,6.117-7.11,6.117h-0.613
		c-6.154,0-7.112-3.615-7.112-6.117v-0.491c0-2.552,0.934-6.052,7.112-6.052H441.943z M444.241,236.445
		c0-1.063-0.614-2.274-2.617-2.274c-2.027,0-2.604,1.211-2.604,2.274v0.196c0,1.096,0.639,2.404,2.604,2.404
		c1.989,0,2.617-1.26,2.617-2.372V236.445z"/>
	<path fill="#FFFFFF" d="M457.897,230.295c6.177,0,7.11,3.5,7.11,6.052v0.491c0,2.502-0.944,6.117-7.11,6.117h-0.613
		c-6.154,0-7.112-3.615-7.112-6.117v-0.491c0-2.552,0.934-6.052,7.112-6.052H457.897z M460.195,236.445
		c0-1.063-0.614-2.274-2.617-2.274c-2.027,0-2.603,1.211-2.603,2.274v0.196c0,1.096,0.638,2.404,2.603,2.404
		c1.989,0,2.617-1.26,2.617-2.372V236.445z"/>
	<path fill="#FFFFFF" d="M466.322,230.541h7.319c5.219,0,6.853,2.617,6.853,5.757v0.507c0,3.026-1.239,5.905-6.853,5.905h-7.319
		V230.541z M470.988,238.948h1.867c2.641,0,2.813-1.604,2.813-2.323v-0.099c0-0.719-0.209-2.208-2.813-2.208h-1.867V238.948z"/>
	<path fill="#FFFFFF" d="M481.795,230.541h6.154l2.148,5.414l2.234-5.414h5.859v12.169h-4.643v-6.02l-2.456,6.02h-2.224l-2.444-6.02
		v6.02h-4.63V230.541z"/>
	<path fill="#FFFFFF" d="M499.617,230.541h4.69v5.005c0,1.358,0.431,2.796,2.384,2.796h0.024c1.915,0,2.382-1.438,2.382-2.796
		v-5.005h4.692v5.643c0,2.437-0.7,6.739-6.791,6.739h-0.614c-6.093,0-6.768-4.303-6.768-6.739V230.541z"/>
	<path fill="#FFFFFF" d="M520.924,242.955c-5.538,0-6.041-2.683-6.041-4.253v-0.131h5.465c0,0.523,0.171,1.309,1.449,1.309
		c1.08,0,1.399-0.408,1.399-0.851v-0.049c0-0.409-0.122-0.785-1.694-0.867l-1.929-0.082c-3.757-0.18-4.543-1.946-4.543-3.86v-0.146
		c0-2.291,1.375-3.697,5.796-3.697h1.56c4.9,0,6.043,1.733,6.043,3.827v0.082h-5.354c-0.038-0.393-0.184-0.981-1.4-0.981
		c-1.117,0-1.326,0.229-1.326,0.638v0.033c0,0.442,0.356,0.687,1.769,0.736l1.842,0.066c3.562,0.13,4.813,1.275,4.813,3.746v0.229
		c0,2.159-1.043,4.253-6.238,4.253H520.924z"/>
	<path fill="#FFFFFF" d="M534.642,242.71h-4.654v-12.169h4.654V242.71z"/>
	<path fill="#FFFFFF" d="M543.06,242.955c-6.24,0-7.112-3.582-7.112-6.117v-0.491c0-2.552,0.824-6.052,7.112-6.052h0.429
		c6.055,0,6.828,3.369,6.828,5.168v0.245h-4.728c-0.062-0.262-0.258-1.538-2.382-1.538c-2.089,0-2.458,1.211-2.458,2.274v0.196
		c0,1.047,0.407,2.404,2.458,2.404c2.148,0,2.346-1.374,2.382-1.668h4.728v0.425c0,1.701-0.773,5.152-6.828,5.152H543.06z"/>
	<path fill="#FFFFFF" d="M555.807,242.71h-4.408v-3.795h4.408V242.71z"/>
	<path fill="#FFFFFF" d="M563.892,242.955c-6.239,0-7.111-3.582-7.111-6.117v-0.491c0-2.552,0.823-6.052,7.111-6.052h0.43
		c6.055,0,6.828,3.369,6.828,5.168v0.245h-4.728c-0.063-0.262-0.258-1.538-2.383-1.538c-2.088,0-2.457,1.211-2.457,2.274v0.196
		c0,1.047,0.406,2.404,2.457,2.404c2.149,0,2.347-1.374,2.383-1.668h4.728v0.425c0,1.701-0.773,5.152-6.828,5.152H563.892z"/>
	<path fill="#FFFFFF" d="M579.968,230.295c6.176,0,7.109,3.5,7.109,6.052v0.491c0,2.502-0.945,6.117-7.109,6.117h-0.614
		c-6.153,0-7.112-3.615-7.112-6.117v-0.491c0-2.552,0.934-6.052,7.112-6.052H579.968z M582.264,236.445
		c0-1.063-0.614-2.274-2.615-2.274c-2.027,0-2.605,1.211-2.605,2.274v0.196c0,1.096,0.641,2.404,2.605,2.404
		c1.989,0,2.615-1.26,2.615-2.372V236.445z"/>
	<path fill="#FFFFFF" d="M588.393,230.541h6.152l2.148,5.414l2.236-5.414h5.857v12.169h-4.643v-6.02l-2.456,6.02h-2.223l-2.443-6.02
		v6.02h-4.63V230.541z"/>
</g>
</svg>
