<?xml version="1.0" encoding="utf-8"?>
<!-- Generator: Adobe Illustrator 16.0.0, SVG Export Plug-In . SVG Version: 6.00 Build 0)  -->
<!DOCTYPE svg PUBLIC "-//W3C//DTD SVG 1.1//EN" "http://www.w3.org/Graphics/SVG/1.1/DTD/svg11.dtd">
<svg version="1.1" id="Layer_1" xmlns="http://www.w3.org/2000/svg" xmlns:xlink="http://www.w3.org/1999/xlink" x="0px" y="0px"
	 width="470px" height="470px" viewBox="0 0 470 470" enable-background="new 0 0 470 470" xml:space="preserve">
<g>
	<path fill="#010202" d="M109.881,130.962"/>
	<path fill="none" stroke="#FFFFFF" stroke-miterlimit="10" d="M106.832,132.3"/>
	<path fill="#010202" d="M63.237,62.225C57.627,104.421,45.634,201.634,43.666,210.8v-0.001l-15.286,12.287l0,0h104.002
		l16.296-120.388l-57.012,31.257l17.943-2.75l-11.514,85.023l0,0l-2.286-7.429l-17.144,0.285c6.572-47.715,12.572-94,18.572-141.715
		l-8.001-3.714h28.858l-5.105,38.866l37.172-20.515l4.791-34.067H51.237l0,0L63.237,62.225"/>
	<path fill="#010202" d="M169.24,62.225l-19.94,148.87l-14.917,11.991l0,0h103.716L260.67,47.938l-103.405,0.006l-0.02-0.021l0,0
		l0.014,0.016h-0.02c0.009,0.003,0.017,0.004,0.025,0.006l11.977,14.26C169.241,62.212,169.241,62.219,169.24,62.225
		 M204.099,216.228l-2.572-7.429l-16.858,0.285c6.571-47.715,12-94,18.572-141.715l-8-3.429l28.857-0.285L204.099,216.228z"/>
	<path fill="#010202" d="M274.101,62.225l-19.939,148.87l-14.918,11.991l0,0H342.96l22.571-175.147h-103.43h0.261h-0.261
		c0.115,0.029,0.221,0.061,0.335,0.09l11.688,13.916C274.116,62.041,274.113,62.129,274.101,62.225 M308.958,216.228l-2.57-7.429
		l-16.856,0.285c6.569-47.715,11.998-94,18.571-141.715l-8.002-3.429l28.858-0.285L308.958,216.228z"/>
	<path fill="#010202" d="M132.823,238.427L132.823,238.427h-0.009c0.003,0.001,0.008,0.003,0.012,0.003l11.989,14.274
		c-0.001,0.003,0,0.007-0.001,0.01l-7.714,57.145l-2,16.001l-10.227,75.724l-14.917,11.992l0,0h103.717l22.571-175.148H132.823z
		 M179.671,406.718l-2.57-7.429l-16.857,0.285c6.57-47.715,11.999-94.001,18.571-141.717l-8.002-3.43l28.858-0.285L179.671,406.718z
		"/>
	<path fill="#010202" d="M249.675,252.714l-19.94,148.869l-14.917,11.992l0,0h103.715l22.574-175.148H237.673h0.052h-0.052
		c0.023,0.006,0.044,0.012,0.067,0.019l11.939,14.216C249.677,252.68,249.677,252.695,249.675,252.714 M284.533,406.718
		l-2.573-7.429l-16.856,0.285c6.572-47.715,12.001-94.001,18.571-141.717l-7.999-3.43l28.858-0.285L284.533,406.718z"/>
	<path fill="#010202" d="M378.677,62.225c-5.664,42.607,0,0-19.613,148.837l-14.959,12.023l0,0h71.715l34.857-22.286l16.86-130.289
		l-29.144-22.572h-71.431l0,0l0,0c0,0,0,0,0,0.001l11.741,13.975C378.692,62.022,378.689,62.118,378.677,62.225 M413.819,216.228
		l-2.57-7.429l-16.856,0.285c6.569-47.715,11.998-94,18.571-141.715l-8.002-3.714h28.858
		C426.962,115.083,420.393,165.083,413.819,216.228z"/>
	<path fill="#010202" d="M354.249,252.714c-5.668,42.608-17.573,139.875-19.613,148.838l-14.96,12.023h0.028h71.688l34.857-22.285
		L443.109,261l-29.145-22.573h-71.43l0,0h-0.009l11.747,13.989C354.265,252.519,354.261,252.611,354.249,252.714 M389.392,406.718
		l-2.57-7.429l-16.856,0.285c6.569-47.715,11.998-94.001,18.571-141.717l-8.002-3.715h28.858
		C402.534,305.573,395.965,355.574,389.392,406.718z"/>
	<g>
		<path fill="#010202" d="M443.76,238.935c-2.703,2.248-5.643,3.37-8.817,3.37s-5.643-1.122-7.413-3.37
			c-1.758-2.247-2.301-4.958-1.621-8.132c0.673-3.162,2.365-5.858,5.072-8.084c2.713-2.226,5.658-3.341,8.833-3.341
			c3.172,0,5.64,1.115,7.397,3.341c1.767,2.226,2.313,4.922,1.64,8.084C448.172,233.977,446.476,236.688,443.76,238.935z
			 M431.913,223.825c-2.31,1.927-3.754,4.252-4.337,6.977c-0.583,2.747-0.131,5.088,1.357,7.024
			c1.498,1.935,3.612,2.904,6.338,2.904c2.725,0,5.252-0.97,7.586-2.904c2.298-1.936,3.739-4.277,4.322-7.024
			c0.583-2.725,0.124-5.05-1.373-6.977c-1.488-1.935-3.597-2.902-6.322-2.902C436.769,220.923,434.245,221.89,431.913,223.825z
			 M436.254,237.467c-1.718,0-3.051-0.613-4.003-1.842c-0.954-1.228-1.215-2.862-0.79-4.9c0.406-1.905,1.296-3.498,2.663-4.776
			c1.367-1.28,2.937-1.919,4.706-1.919c1.113,0,2.071,0.223,2.871,0.671c1.383,0.802,1.944,2.133,1.687,3.995H441.5
			c0.071-0.78-0.115-1.456-0.555-2.029c-0.443-0.572-1.2-0.859-2.273-0.859c-1.51,0-2.74,0.678-3.698,2.031
			c-0.623,0.862-1.045,1.793-1.262,2.792c-0.304,1.426-0.205,2.626,0.294,3.6c0.5,0.972,1.414,1.458,2.747,1.458
			c0.853,0,1.612-0.226,2.279-0.679c0.666-0.453,1.206-1.11,1.624-1.975h1.889c-0.543,1.404-1.386,2.496-2.53,3.27
			C438.871,237.079,437.618,237.467,436.254,237.467z"/>
	</g>
	<path fill="#010202" d="M75.103,401.54l-14.975,12.035l0,0h48.398l22.571-175.148l0,0H82.556h-0.029
		c0.014,0.003,0.025,0.008,0.039,0.011l11.899,14.169l-5.666,42.968l-21.837,11.951l8.993-69.099l0,0H27.393h-0.012
		c0.005,0.001,0.01,0.003,0.015,0.005l11.988,14.271c0,0.003,0,0.008-0.001,0.011l-7.429,57.145
		c-5.617,42.237-10.101,82.312-12.132,91.455L4.585,413.56c-0.021,0.007-0.042,0.01-0.062,0.016h0.045l0,0h48.815
		c3.216-26.809,6.686-53.127,10.17-79.87l21.858-11.963L75.103,401.54"/>
</g>
</svg>
